<svg xmlns="http://www.w3.org/2000/svg" viewBox="0 0 64 64" id="badminton-cock" >
  <path d="M43.88257,28.33911,48.05444,9.217l-4.6289-2.47558-3.026.97827L37.7229,6.531,34.61646,7.59674l-2.376-.93341-2.33826.91852-3.569-1.09967L23.72162,7.7431l-3.18427-.80731L15.94556,9.446l4.34912,19.08252,2.699,1.67847,2.819,15.94531v4.69312a6.67261,6.67261,0,0,0,13.34522,0V46.09955l2.05139-16.06409ZM35.80579,45.57648l1.38458-15.65155,1.762-1.30835,1.26386,1.2987L38.21741,45.568Zm-9.0741.03186L23.98328,30.06262l1.56884-1.64282,2.043,1.4187L28.6651,45.60156Zm2.93579-.01032L28.59283,29.76581l1.293-1.22345,1.85462,1.50677V45.59076Zm3.073-15.54895,1.95532-1.58862,1.49683,1.39569L34.80164,45.58l-2.06116.0072ZM43.32886,7.82349l3.58789,1.91894L42.99487,27.718l-2.17675,1.38183-1.07245-1.10193,2.76-19.34289-.73688-.32727ZM37.676,7.60425l3.73291,1.6582L38.8103,27.47632l-2.062,1.53076L35.24017,27.601,37.11157,8.5769l-1.05829-.41577ZM36.04224,9.2312,34.24146,27.54175l-2.001,1.62549-1.62183-1.31818.27368-.259.4408-19.49616.90735-.35638ZM26.41431,7.55347l3.90381,1.20312-.416,18.394-1.87256,1.77149-1.87622-1.30231L25.61011,8.22192l-.38062-.09649ZM17.08813,9.96069l3.584-1.95947,3.95947,1.00391.51465,18.3916L23.366,29.261l-2.18946-1.36133ZM32.4856,56.51782a5.679,5.679,0,0,1-5.67286-5.67236V49.7522h2.32032v-1H26.81274V46.60767L38.158,46.5686v2.20057l-1.14063-.017-.01464,1,1.15527.01715v1.07611A5.67855,5.67855,0,0,1,32.4856,56.51782Zm-2.45606-7.86963,1.249.01856-.01464,1-1.249-.01856Zm2.3291.03467,1.24951.01856-.01464,1L32.344,49.68286Zm2.3291.03467,1.24952.01855-.01465,1-1.24951-.01855Z"></path>
</svg>
