<svg xmlns="http://www.w3.org/2000/svg" viewBox="0 0 64 64" id="basketball">
  <path d="M32,6.5A25.53693,25.53693,0,0,0,6.91907,27.42548a13.87773,13.87773,0,0,0-.34046,2.66986C6.53186,30.725,6.5,31.35864,6.5,32A25.5,25.5,0,1,0,32,6.5ZM54.64264,22.65259a11.6182,11.6182,0,0,0-6.04987-3.8357,8.457,8.457,0,0,0-6.90869,1.14454c-.0838.05993-.15423.12408-.23224.18585a39.07451,39.07451,0,0,0-3.90942-2.78986,63.99835,63.99835,0,0,1,9.28876-4.84088A24.62887,24.62887,0,0,1,54.64264,22.65259ZM32,7.5a24.35676,24.35676,0,0,1,13.89227,4.33484,65.0422,65.0422,0,0,0-9.32245,4.9527,39.21567,39.21567,0,0,0-6.20428-2.93866c.01056-.03461.02832-.05957.03827-.095a6.76311,6.76311,0,0,0-1.53-6.04755A24.58971,24.58971,0,0,1,32,7.5Zm-4.32269.38965a5.90009,5.90009,0,0,1,1.76361,5.59375c-.00525.01868-.01459.032-.02.05035a39.58074,39.58074,0,0,0-4.78516-1.316,39.03193,39.03193,0,0,0-6.00213-.73462A24.34773,24.34773,0,0,1,27.67731,7.88965ZM17.27216,12.4353a38.26561,38.26561,0,0,1,7.16339.762,38.58811,38.58811,0,0,1,4.5357,1.24133c-.84192,1.15893-2.51477,1.4505-5.24225,1.80066a32.25618,32.25618,0,0,0-7.126,1.52832,18.0247,18.0247,0,0,0-3.56446,1.52685,13.13634,13.13634,0,0,0-3.4259,2.77124A24.64144,24.64144,0,0,1,17.27216,12.4353ZM29.4118,56.36224a24.496,24.496,0,0,1-16.89471-9.53045A64.08947,64.08947,0,0,1,23.02783,29.86133L22.27,29.209A65.103,65.103,0,0,0,11.8363,45.89429,24.35673,24.35673,0,0,1,7.5,32c0-.03845.00275-.07623.00293-.11462l.15088-.02649a9.21012,9.21012,0,0,1-.10346-1.35913,24.44545,24.44545,0,0,1,.43427-3.3526,11.28952,11.28952,0,0,1,5.55005-6.98456,17.11365,17.11365,0,0,1,3.38721-1.44727A31.02958,31.02958,0,0,1,23.85645,17.231c2.77252-.356,5.03649-.658,6.1098-2.4657a38.22539,38.22539,0,0,1,5.6759,2.637c-1.53772,1.02338-3.03894,2.105-4.48932,3.25885l.62207.78223C33.331,20.20563,34.945,19.05005,36.60254,17.965a38.0809,38.0809,0,0,1,4.11359,2.87365c-1.80549,2.10151-1.1521,5.04621-.34943,8.652a41.18283,41.18283,0,0,1,1.27246,9.33692C42.28882,53.50562,30.54333,56.14294,29.4118,56.36224Zm2.81415.132c3.99213-1.66406,10.92072-6.21844,10.41272-17.6886a42.54024,42.54024,0,0,0-1.2959-9.53222c-.79412-3.56836-1.35131-6.07544.15613-7.80927A37.74015,37.74015,0,0,1,54.10828,42.5506,24.52918,24.52918,0,0,1,32.226,56.49426ZM42.2514,20.78632l.01423-.01142a7.4673,7.4673,0,0,1,6.09423-.98584A11.67966,11.67966,0,0,1,55.77,26.06848,24.42808,24.42808,0,0,1,54.76605,41.0351,38.73578,38.73578,0,0,0,42.2514,20.78632Zm-17.80169,6.036.70117.71289-.94922.9331-.70117-.71289Zm1.77-1.73926.70117.71289-.94922.93262-.70117-.71289Zm1.77-1.73975.70117.71289-.94922.93311-.70117-.71289Zm1.77-1.73926.70117.71289-.94922.93262-.70117-.71289Z"></path>
</svg>
