<svg xmlns="http://www.w3.org/2000/svg" viewBox="0 0 64 64" id="boxing-gloves">
  <path d="M19.94434,22.74292,21.146,22.761l-.01465,1-1.20166-.01807Zm-2.25586.96631,1.20215.01806.01464-1-1.20214-.01806Zm-2.24121-.0332,1.20214.01806.01465-1L15.46191,22.676Zm-2.24073-.0337,1.20166.01807.01465-1-1.20166-.01807Zm18.20313,9.32129v6.44629a2.97047,2.97047,0,0,1-2.96729,2.9668h-.27881a2.61578,2.61578,0,0,1-1.63086-.56641l.01368,3.86621a6.51438,6.51438,0,0,1-6.55616,6.39161H13.0127A6.52035,6.52035,0,0,1,6.5,45.55444V29.2854a6.61239,6.61239,0,0,1,4.24951-6.14935V11.93188H25.32617V23.59467A10.31334,10.31334,0,0,1,31.40967,32.96362Zm-5.88721,6.76856.001-1.292a1.51609,1.51609,0,0,0-1.50293-1.51465h-.01123a1.5137,1.5137,0,0,0-1.5127,1.51367,1.18742,1.18742,0,0,0,.8374,1.11523l2.10059.65723c.04785.01562.09522.03223.14063.05176A2.66332,2.66332,0,0,1,25.52246,39.73218Zm4.88721-6.76856A9.29463,9.29463,0,0,0,22.436,23.79028l.13769-.99023a10.11723,10.11723,0,0,1,1.75244.408V12.93188H11.74951v9.9115c.13794-.0285.27539-.05828.41651-.078l.13769.99024A5.60357,5.60357,0,0,0,7.5,29.2854v16.269a5.51967,5.51967,0,0,0,5.5127,5.51368h6.97753a5.51157,5.51157,0,0,0,5.55616-5.39356l-.01416-3.97168a.56142.56142,0,0,0-.39649-.53613l-2.09961-.65723A2.189,2.189,0,0,1,21.49658,38.446a2.50107,2.50107,0,0,1,.74268-1.791,2.43632,2.43632,0,0,1,1.7876-.72949,2.5186,2.5186,0,0,1,2.49658,2.51465l-.001,1.293a1.64713,1.64713,0,0,0,1.64111,1.64356h.27881a1.96885,1.96885,0,0,0,1.96729-1.9668ZM13.89209,14.53149h8.498v6.73h-8.498Zm1,5.73h6.498v-4.73h-6.498ZM9.90283,48.74976h1v-.78321h-1Zm0-1.46094h1v-.78418h-1Zm1.73926,1.46094h1v-.78321h-1Zm32.42822-8.49317L42.86865,40.239l-.01465,1,1.20166.01758Zm2.24121.0332-1.20214-.01757-.01465,1,1.20215.01757Zm2.2417.03418-1.20215-.01855-.01562,1,1.20215.01855Zm1.02344,1.01465,1.20166.01856.01563-1-1.20166-.01856ZM57.5,18.44458v16.27a6.61258,6.61258,0,0,1-4.24951,6.14874V52.06812H38.67383V40.40466a10.31221,10.31221,0,0,1-6.0835-9.36877v-6.4458a2.97057,2.97057,0,0,1,2.96729-2.96729h.27881a2.61824,2.61824,0,0,1,1.63086.56592l-.01368-3.86621a6.5142,6.5142,0,0,1,6.55616-6.39063H50.9873A6.51983,6.51983,0,0,1,57.5,18.44458ZM38.47754,24.26636l-.001,1.293A1.51713,1.51713,0,0,0,39.98,27.074h.01025a1.51371,1.51371,0,0,0,1.51319-1.51318,1.19138,1.19138,0,0,0-.83838-1.1167l-2.09912-.65625c-.04834-.01465-.09522-.03222-.14112-.05127A2.65593,2.65593,0,0,1,38.47754,24.26636ZM56.5,18.44458a5.51915,5.51915,0,0,0-5.5127-5.5127H44.00977a5.51074,5.51074,0,0,0-5.55616,5.39258l.01416,3.97168a.56367.56367,0,0,0,.39649.5376l2.09912.65625a2.19033,2.19033,0,0,1,1.54,2.064,2.5008,2.5008,0,0,1-.7417,1.78955,2.66475,2.66475,0,0,1-1.78858.73046,2.51943,2.51943,0,0,1-2.49658-2.51562l.001-1.293a1.64713,1.64713,0,0,0-1.64111-1.64258h-.27881a1.96927,1.96927,0,0,0-1.96729,1.96729v6.4458A9.29339,9.29339,0,0,0,41.564,40.20874l-.13769.99023a10.118,10.118,0,0,1-1.75244-.40795v10.2771H52.25049v-9.912c-.13776.0285-.27509.05829-.416.078l-.13867-.99023A5.60421,5.60421,0,0,0,56.5,34.7146ZM41.60986,42.738h8.498v6.73047h-8.498Zm1,5.73047h6.498V43.738h-6.498ZM53.09717,16.03345h1v-.78369h-1Zm0,1.46093h1v-.78369h-1Zm-1.73926-1.46093h1v-.78369h-1Z"></path>
</svg>
