<svg xmlns="http://www.w3.org/2000/svg" viewBox="0 0 64 64" id="soccer-ball">
  <path d="M32,6.5A25.5,25.5,0,1,0,57.5,32,25.52913,25.52913,0,0,0,32,6.5ZM56.47925,31.18127l-4.56714-3.15,3.08734-4.47577A24.36,24.36,0,0,1,56.47925,31.18127ZM54.5556,22.43713l-3.56695,5.17249-8.80139,1.357-9.68787-6.73938-.0238-9.72345,4.566-4.47967A24.5909,24.5909,0,0,1,54.5556,22.43713ZM35.8399,7.80316l-3.88433,3.81012-3.74567-3.819a24.51291,24.51291,0,0,1,7.63.00891Zm-8.81854.20636,4.45435,4.54242.02362,9.67621-9.90881,6.89307-8.19666-1.249L9.48907,22.3385A24.58915,24.58915,0,0,1,27.02136,8.00952ZM12.46875,28.2959,7.50513,31.79877A24.37275,24.37275,0,0,1,9.0448,23.44348Zm-4.94458,4.658.02563.03631,5.82453-4.10974,7.94208,1.21015.58691,1.85858.95313-.30078-.5669-1.7959L32,23.09863l9.71045,6.75391L38.187,41.01074H25.81348l-.54737-1.73437-.9541.30078.57276,1.81482-2.95966,6.033-7.46954,1.621.0086.03973A24.41269,24.41269,0,0,1,7.52417,32.95392ZM21.916,48.4502,23.31647,54.905a24.54161,24.54161,0,0,1-8.032-5.0163Zm2.509,6.84564-1.609-7.416,2.87927-5.86908H38.28857l2.486,6.44623L39.031,55.46686a24.43444,24.43444,0,0,1-14.606-.171Zm23.56225-4.75421a24.50368,24.50368,0,0,1-7.834,4.55816l1.52405-6.12811Zm.84064-.76007.01441-.05793L41.644,47.93384,39.11768,41.383l3.6286-11.49085,8.25671-1.273,5.48682,3.78394A24.42588,24.42588,0,0,1,48.82788,49.78156ZM23.71387,37.709l.95508-.29492.27587.89063-.95507.29492Zm-.51514-1.66015.95508-.29492.27588.89062-.95508.29492Zm-.51514-1.6582.95508-.29688.27637.88965-.95508.29687Zm-.23877-.77051-.27636-.88965.95508-.29688.27636.88965ZM36.749,37.47266l-1.07763-.00586.00586-1,1.07763.00586Zm-.00244,2.07422L35.669,39.542l.00488-1,1.07763.00489Zm-1.92529-.00977-.981-.00391.00391-1,.981.00391Z"></path>
</svg>
