<svg xmlns="http://www.w3.org/2000/svg" viewBox="0 0 64 64" id="tennis-ball">
  <path d="M41.53125,44.87891l.57324.82031q-.56909.397-1.16992.75l-.50684-.86133Q40.99391,45.2539,41.53125,44.87891Zm.78955-.58789.62012.78515q.51855-.41016,1.00488-.85742L43.27,43.48242Q42.8108,43.90284,42.3208,44.291ZM44.147,42.61426l.72949.68359c.35254-.376.69336-.77246,1.0127-1.17969L45.103,41.501Q44.64892,42.07812,44.147,42.61426Zm1.56055-1.9336.82324.56836c.29248-.42382.48633-.7207.74121-1.16992l-.86914-.49414C46.16357,40.00488,45.98145,40.28418,45.70752,40.68066ZM57.5,32A25.5,25.5,0,1,1,32,6.5,25.52913,25.52913,0,0,1,57.5,32Zm-1,0A24.50784,24.50784,0,0,0,44.33087,10.84259c-.45386,1.078-1.23907,4.08344,1.131,8.98651.47754.98731.95362,1.88477,1.40332,2.73242,1.49561,2.81836,2.78711,5.252,2.78711,8.66114a17.48057,17.48057,0,0,1-1.78271,7.73925l-.89844-.43945a16.48726,16.48726,0,0,0,1.68115-7.2998c0-3.16016-1.17822-5.38086-2.67041-8.19239-.45507-.85839-.937-1.7666-1.42041-2.76562-2.60455-5.38843-1.66705-8.69525-1.11181-9.91559a24.43632,24.43632,0,0,0-22.96894.03571,13.55987,13.55987,0,0,1-1.04229,9.88086c-.36768.751-.76465,1.49218-1.16211,2.23437-1.43994,2.69141-2.92871,5.47363-2.92871,8.72266A16.67089,16.67089,0,0,0,32,47.875a16.5021,16.5021,0,0,0,7.1499-1.6084l.42969.90235A17.49371,17.49371,0,0,1,32,48.875,17.67251,17.67251,0,0,1,14.34766,31.22266c0-3.5,1.54931-6.39453,3.04736-9.19434.3916-.73242.78271-1.46289,1.145-2.20215a12.82705,12.82705,0,0,0,1.0412-8.933A24.49548,24.49548,0,1,0,56.5,32ZM23.29736,14.53418,24.375,14.54l.00586-1-1.07764-.00586ZM23.30029,12.46l1.07813.00488.00488-1L23.30518,11.46Zm1.92627.00879.981.00488.00488-1-.98095-.00488Z"></path>
</svg>
