<svg xmlns="http://www.w3.org/2000/svg" viewBox="0 0 64 64" id="volleyball">
  <path d="M57.5,32A25.51494,25.51494,0,0,0,44.40692,9.73322l.00372-.01056c-.01641-.00574-.03314-.01014-.04962-.01587A25.485,25.485,0,0,0,6.5,32c0,.1665.00946.33081.01263.49658l-.00238.00049.00263.01129a25.529,25.529,0,0,0,14.96466,22.71l-.00293.06391c.05072.00238.10113.00158.15179.00354a25.42671,25.42671,0,0,0,23.48835-1.42646l.0249.03034c.06006-.04932.11645-.10278.176-.15277A25.50638,25.50638,0,0,0,57.5,32Zm-2.44092,8.27338a17.92536,17.92536,0,0,0-9.2539-8.75092,18.15187,18.15187,0,0,0-13.71613-.14477,17.14128,17.14128,0,0,1-4.98212-9.20575,21.45169,21.45169,0,0,1,15.88721-2.544,21.18875,21.18875,0,0,1,13.32642,9.457,24.2882,24.2882,0,0,1-1.26148,11.18842Zm-29.02685.62036A21.78012,21.78012,0,0,1,15.61035,28.84668a20.397,20.397,0,0,1,1.10047-15.97015A24.37506,24.37506,0,0,1,29.81348,7.60266a17.93191,17.93191,0,0,0-4.01172,12.11609A18.15031,18.15031,0,0,0,31.3844,32.08563,17.13724,17.13724,0,0,1,26.03223,40.89374ZM55.93335,26.77466A22.17349,22.17349,0,0,0,43.2168,18.65332,22.42526,22.42526,0,0,0,26.93262,21.126c-.06031-.47943-.11133-.96125-.13184-1.44928A17.02236,17.02236,0,0,1,28.25385,12.043a19.39086,19.39086,0,0,1,15.713-1.41A24.5774,24.5774,0,0,1,55.93335,26.77466ZM39.45636,8.66394A20.39832,20.39832,0,0,0,29.0191,10.52673,17.102,17.102,0,0,1,31.186,7.52063C31.45685,7.51172,31.727,7.5,32,7.5A24.40438,24.40438,0,0,1,39.45636,8.66394ZM14.91785,14.46088a21.32408,21.32408,0,0,0-.25232,14.713A22.73768,22.73768,0,0,0,25.21759,41.5791c-.391.30231-.79034.59619-1.21027.86719A17.02566,17.02566,0,0,1,16.668,45.0611,19.37233,19.37233,0,0,1,7.50934,32.36829C7.50751,32.24524,7.5,32.12347,7.5,32A24.42289,24.42289,0,0,1,14.91785,14.46088Zm.03845,30.70684a17.14642,17.14642,0,0,1-3.84326-.37786,24.34667,24.34667,0,0,1-3.0987-7.79059A20.40154,20.40154,0,0,0,14.9563,45.16772Zm-3.09985.75507a18.12159,18.12159,0,0,0,2.91943.26471c.55688,0,1.11084-.03552,1.6629-.08716l.0329.01978.014-.02484a18.15843,18.15843,0,0,0,15.863-13.751,17.16747,17.16747,0,0,1,11.40094-.49841,25.15462,25.15462,0,0,1-7.79358,17.01544,19.93476,19.93476,0,0,1-14.12255,5.421A24.6496,24.6496,0,0,1,11.85645,45.92279Zm12.3366,9.29443A21.14,21.14,0,0,0,36.6333,49.59766a26.1307,26.1307,0,0,0,8.09638-17.4032c.22943.085.46228.15484.68927.24988a16.98564,16.98564,0,0,1,6.88232,5.26611,22.34974,22.34974,0,0,1-7.62408,15.24762,24.43565,24.43565,0,0,1-20.48414,2.25915ZM49.23016,49.398a24.06845,24.06845,0,0,0,3.9502-10.45276,17.18352,17.18352,0,0,1,1.37549,2.617A24.59041,24.59041,0,0,1,49.23016,49.398Z"></path>
</svg>
