<svg width="128" height="32" viewBox="0 0 128 32" fill="none" xmlns="http://www.w3.org/2000/svg">
<path d="M39.1389 11.0476C39.1389 11.0476 38.4756 15.2522 46.2515 17.3385C52.546 19.0273 58 18 58 18" stroke="#262082" stroke-width="3"/>
<path d="M52.5 3.49997C52.5 3.49997 45.9901 9.02499 43 16.5C40.5795 22.551 45 29.5 45 29.5" stroke="#262082" stroke-width="3"/>
<path d="M107.139 11.0476C107.139 11.0476 106.476 15.2522 114.251 17.3385C120.546 19.0273 126 18 126 18" stroke="#262082" stroke-width="3"/>
<path d="M120.5 3.49997C120.5 3.49997 113.99 9.02499 111 16.5C108.58 22.551 113 29.5 113 29.5" stroke="#262082" stroke-width="3"/>
<path d="M109.404 30.6875C108.701 30.5312 108.024 30.2708 107.373 29.9062C106.748 29.5417 106.175 29.0989 105.654 28.5781C105.16 28.0573 104.73 27.4844 104.365 26.8594C104.001 26.2083 103.74 25.5312 103.584 24.8281C103.506 23.1614 103.545 21.5599 103.701 20.0234C103.857 18.4609 104.105 16.9375 104.443 15.4531C104.808 13.9427 105.251 12.4453 105.771 10.9609C106.318 9.47655 106.917 7.95312 107.568 6.39062C107.568 6.33853 107.607 6.27343 107.686 6.1953C107.764 6.11718 107.829 6.07812 107.881 6.07812C108.011 6.05207 108.271 6.03905 108.662 6.03905C109.053 6.03905 109.3 6.05207 109.404 6.07812C109.535 7.0677 109.404 8.18749 109.014 9.43749C108.623 10.6614 108.141 11.9375 107.568 13.2656C107.021 14.5937 106.475 15.9609 105.928 17.3672C105.381 18.7474 105.029 20.0755 104.873 21.3516C104.717 22.6276 104.847 23.8385 105.264 24.9844C105.68 26.1042 106.553 27.0807 107.881 27.9141C108.662 28.4088 109.535 28.7344 110.498 28.8906C111.462 29.0469 112.425 29.0599 113.389 28.9297C114.378 28.7995 115.329 28.5391 116.24 28.1484C117.152 27.7578 117.959 27.263 118.662 26.6641C120.589 25.0234 122.048 23.3437 123.037 21.625C124.053 19.8802 124.691 18.1614 124.951 16.4687C125.238 14.776 125.212 13.1614 124.873 11.625C124.561 10.0885 124.027 8.70832 123.271 7.48437C122.516 6.23437 121.618 5.1927 120.576 4.35937C119.535 3.49999 118.428 2.9401 117.256 2.67968C116.11 2.39322 114.951 2.43228 113.779 2.79687C112.633 3.16145 111.592 3.9427 110.654 5.14062C110.264 5.34895 110.029 5.40103 109.951 5.29687C109.899 5.16666 109.951 4.95832 110.107 4.67187C110.29 4.38541 110.55 4.04687 110.889 3.65624C111.253 3.26562 111.644 2.87499 112.061 2.48437C112.503 2.09374 112.946 1.7552 113.389 1.46874C113.831 1.15624 114.248 0.947908 114.639 0.843741C115.081 0.739575 115.576 0.726554 116.123 0.804679C116.67 0.856762 117.204 0.97395 117.725 1.15624C118.271 1.33853 118.792 1.55989 119.287 1.8203C119.782 2.08072 120.186 2.36718 120.498 2.67968C120.993 3.14843 121.514 3.64322 122.061 4.16405C122.607 4.65885 123.141 5.1927 123.662 5.76562C124.209 6.31249 124.704 6.89843 125.146 7.52343C125.615 8.14843 126.006 8.79947 126.318 9.47655C127.1 11.1953 127.49 12.9792 127.49 14.8281C127.49 16.651 127.165 18.4219 126.514 20.1406C125.889 21.8594 124.99 23.4479 123.818 24.9062C122.673 26.3646 121.331 27.6016 119.795 28.6172C118.285 29.6068 116.631 30.3099 114.834 30.7266C113.063 31.1172 111.253 31.1042 109.404 30.6875Z" fill="#262082"/>
<path d="M92.4805 29.9746C92.5195 28.627 92.5 27.2793 92.4219 25.9316C92.3633 24.5645 92.2852 23.207 92.1875 21.8594C92.1094 20.4922 92.0312 19.1348 91.9531 17.7871C91.8945 16.4199 91.8945 15.0625 91.9531 13.7148C91.7383 13.7734 91.4062 13.8613 90.957 13.9785C90.5078 14.0762 90 14.1934 89.4336 14.3301C88.8672 14.4668 88.2617 14.6133 87.6172 14.7695C86.9922 14.9062 86.3965 15.043 85.8301 15.1797C85.2637 15.3164 84.7559 15.4434 84.3066 15.5605C83.8574 15.6582 83.5254 15.7266 83.3105 15.7656C83.0371 15.8242 82.7637 15.7949 82.4902 15.6777C82.2363 15.541 82.002 15.3945 81.7871 15.2383L82.8125 14.2422C85.8984 13.9492 88.9355 13.3535 91.9238 12.4551C94.9121 11.5371 97.8027 10.4336 100.596 9.14453H102.119C102.217 9.30078 102.217 9.4668 102.119 9.64258C102.041 9.81836 101.924 9.98438 101.768 10.1406C101.611 10.2773 101.455 10.4043 101.299 10.5215L101.094 10.668L94.0039 13.2168C93.9844 13.2168 93.9648 13.4512 93.9453 13.9199C93.9453 14.3887 93.9453 14.9453 93.9453 15.5898C93.9453 16.2344 93.9453 16.9082 93.9453 17.6113C93.9648 18.2949 93.9844 18.8613 94.0039 19.3105C94.0039 19.4668 94.0137 19.8086 94.0332 20.3359C94.0723 20.8633 94.1016 21.4785 94.1211 22.1816C94.1602 22.8652 94.1992 23.5977 94.2383 24.3789C94.2773 25.1602 94.3164 25.9023 94.3555 26.6055C94.3945 27.3086 94.4238 27.9238 94.4434 28.4512C94.4629 28.959 94.4824 29.3008 94.502 29.4766C94.502 29.8086 94.4043 30.1113 94.209 30.3848C94.0332 30.6582 93.8281 30.8438 93.5938 30.9414C93.3594 31.0391 93.125 31.0293 92.8906 30.9121C92.6758 30.7754 92.5391 30.4629 92.4805 29.9746Z" fill="black"/>
<path d="M66.2598 30.502C66.2402 30.1504 66.2109 29.623 66.1719 28.9199C66.1523 28.1973 66.123 27.3867 66.084 26.4883C66.0645 25.5703 66.0352 24.6133 65.9961 23.6172C65.957 22.6211 65.918 21.6738 65.8789 20.7754C65.8594 19.877 65.8398 19.0762 65.8203 18.373C65.8008 17.6504 65.791 17.1133 65.791 16.7617C65.791 16.6445 65.7812 16.4492 65.7617 16.1758C65.7617 15.8828 65.7617 15.5801 65.7617 15.2676C65.7617 14.9355 65.7617 14.623 65.7617 14.3301C65.7812 14.0371 65.791 13.832 65.791 13.7148C65.5566 13.832 65.2734 14.0371 64.9414 14.3301C64.6289 14.623 64.2871 14.9453 63.916 15.2969C63.5449 15.6289 63.1641 15.9414 62.7734 16.2344C62.4023 16.5078 62.0508 16.6836 61.7187 16.7617C61.2695 16.4883 61.0645 16.1562 61.1035 15.7656C61.1426 15.3555 61.3574 14.9258 61.748 14.4766C62.1582 14.0078 62.6953 13.5293 63.3594 13.041C64.043 12.5527 64.7852 12.084 65.5859 11.6348C66.4062 11.1855 67.2461 10.7754 68.1055 10.4043C68.9648 10.0332 69.7754 9.73047 70.5371 9.49609C71.3184 9.24219 72.002 9.08594 72.5879 9.02734C73.1934 8.94922 73.6426 8.98828 73.9355 9.14453C74.4824 9.71094 74.7461 10.4141 74.7266 11.2539C74.707 12.0938 74.5215 12.9922 74.1699 13.9492C73.8184 14.9062 73.3594 15.9023 72.793 16.9375C72.2266 17.9727 71.6797 18.9785 71.1523 19.9551C70.625 20.9121 70.1758 21.8203 69.8047 22.6797C69.4336 23.5195 69.2578 24.2422 69.2773 24.8477C69.2969 25.4531 69.5801 25.9023 70.127 26.1953C70.6738 26.4883 71.6016 26.5566 72.9102 26.4004C73.5742 26.2441 74.2676 26 74.9902 25.668C75.7129 25.3164 76.416 24.9355 77.0996 24.5254C77.7832 24.0957 78.418 23.6465 79.0039 23.1777C79.6094 22.709 80.1172 22.2695 80.5273 21.8594C81.2109 22.0352 81.5918 22.2891 81.6699 22.6211C81.748 22.9531 81.6113 23.3242 81.2598 23.7344C80.9277 24.1445 80.4199 24.5742 79.7363 25.0234C79.0527 25.4727 78.2812 25.9121 77.4219 26.3418C76.5625 26.752 75.6641 27.123 74.7266 27.4551C73.8086 27.7871 72.9199 28.041 72.0605 28.2168C71.2207 28.3926 70.459 28.4707 69.7754 28.4512C69.1113 28.4316 68.623 28.2656 68.3105 27.9531C68.3105 28.0703 68.3008 28.2754 68.2812 28.5684C68.2617 28.8613 68.2227 29.1738 68.1641 29.5059C68.1055 29.8184 68.0078 30.1211 67.8711 30.4141C67.7344 30.6875 67.5391 30.8828 67.2852 31C67.0703 31.0977 66.8652 31.0781 66.6699 30.9414C66.4941 30.8047 66.3574 30.6582 66.2598 30.502ZM67.8125 24.0566L73.2031 12.0156C73.0664 11.5664 72.832 11.2539 72.5 11.0781C72.1875 10.8828 71.8262 10.7949 71.416 10.8145C71.0059 10.8145 70.5859 10.9023 70.1562 11.0781C69.7266 11.2539 69.3262 11.4688 68.9551 11.7227C68.6035 11.957 68.3105 12.2207 68.0762 12.5137C67.8418 12.7871 67.7246 13.041 67.7246 13.2754L67.8125 24.0566Z" fill="black"/>
<path d="M41.5918 30.6875C40.8887 30.5312 40.2116 30.2708 39.5605 29.9062C38.9355 29.5417 38.3626 29.0989 37.8418 28.5781C37.347 28.0573 36.9173 27.4844 36.5527 26.8594C36.1882 26.2083 35.9277 25.5312 35.7715 24.8281C35.6934 23.1614 35.7324 21.5599 35.8887 20.0234C36.0449 18.4609 36.2923 16.9375 36.6309 15.4531C36.9954 13.9427 37.4382 12.4453 37.959 10.9609C38.5059 9.47655 39.1048 7.95312 39.7559 6.39062C39.7559 6.33853 39.7949 6.27343 39.873 6.1953C39.9512 6.11718 40.0163 6.07812 40.0684 6.07812C40.1986 6.05207 40.459 6.03905 40.8496 6.03905C41.2402 6.03905 41.4876 6.05207 41.5918 6.07812C41.722 7.0677 41.5918 8.18749 41.2012 9.43749C40.8105 10.6614 40.3288 11.9375 39.7559 13.2656C39.209 14.5937 38.6621 15.9609 38.1152 17.3672C37.5684 18.7474 37.2168 20.0755 37.0605 21.3516C36.9043 22.6276 37.0345 23.8385 37.4512 24.9844C37.8678 26.1042 38.7402 27.0807 40.0684 27.9141C40.8496 28.4088 41.722 28.7344 42.6855 28.8906C43.6491 29.0469 44.6126 29.0599 45.5762 28.9297C46.5658 28.7995 47.5163 28.5391 48.4277 28.1484C49.3392 27.7578 50.1465 27.263 50.8496 26.6641C52.7767 25.0234 54.235 23.3437 55.2246 21.625C56.2402 19.8802 56.8783 18.1614 57.1387 16.4687C57.4251 14.776 57.3991 13.1614 57.0605 11.625C56.748 10.0885 56.2142 8.70832 55.459 7.48437C54.7038 6.23437 53.8053 5.1927 52.7637 4.35937C51.722 3.49999 50.6152 2.9401 49.4434 2.67968C48.2975 2.39322 47.1387 2.43228 45.9668 2.79687C44.821 3.16145 43.7793 3.9427 42.8418 5.14062C42.4512 5.34895 42.2168 5.40103 42.1387 5.29687C42.0866 5.16666 42.1387 4.95832 42.2949 4.67187C42.4772 4.38541 42.7376 4.04687 43.0762 3.65624C43.4408 3.26562 43.8314 2.87499 44.248 2.48437C44.6908 2.09374 45.1335 1.7552 45.5762 1.46874C46.0189 1.15624 46.4355 0.947908 46.8262 0.843741C47.2689 0.739575 47.7637 0.726554 48.3105 0.804679C48.8574 0.856762 49.3913 0.97395 49.9121 1.15624C50.459 1.33853 50.9798 1.55989 51.4746 1.8203C51.9694 2.08072 52.373 2.36718 52.6855 2.67968C53.1803 3.14843 53.7012 3.64322 54.248 4.16405C54.7949 4.65885 55.3288 5.1927 55.8496 5.76562C56.3965 6.31249 56.8913 6.89843 57.334 7.52343C57.8027 8.14843 58.1934 8.79947 58.5059 9.47655C59.2871 11.1953 59.6777 12.9792 59.6777 14.8281C59.6777 16.651 59.3522 18.4219 58.7012 20.1406C58.0762 21.8594 57.1777 23.4479 56.0059 24.9062C54.86 26.3646 53.5189 27.6016 51.9824 28.6172C50.472 29.6068 48.8184 30.3099 47.0215 30.7266C45.2507 31.1172 43.4408 31.1042 41.5918 30.6875Z" fill="#262082"/>
<path d="M23.3789 22.3574C23.2422 22.4746 23.0176 22.6699 22.7051 22.9434C22.4121 23.1973 22.0703 23.4609 21.6797 23.7344C21.3086 23.9883 20.9082 24.1934 20.4785 24.3496C20.0684 24.5059 19.6777 24.5254 19.3066 24.4082C19.1504 24.3496 19.0234 24.2617 18.9258 24.1445C18.8477 24.0273 18.7891 23.9004 18.75 23.7637C18.7305 23.6074 18.7207 23.4512 18.7207 23.2949C18.7402 23.1387 18.7695 22.9922 18.8086 22.8555L24.1406 19.8086V11.166C24.1406 10.9902 24.248 10.8633 24.4629 10.7852C24.6777 10.6875 24.9121 10.6387 25.166 10.6387C25.4199 10.6387 25.6543 10.6875 25.8691 10.7852C26.084 10.8633 26.1914 10.9902 26.1914 11.166V18.2852C27.0117 17.8555 27.8125 17.3281 28.5938 16.7031C29.3945 16.0586 30.0781 15.3945 30.6445 14.7109C31.2305 14.0078 31.6504 13.3242 31.9043 12.6602C32.1582 11.9961 32.1582 11.4199 31.9043 10.9316C31.6504 10.4238 31.084 10.0527 30.2051 9.81836C29.3457 9.56445 28.0859 9.50586 26.4258 9.64258C26.0742 9.68164 25.625 9.78906 25.0781 9.96484C24.5312 10.1406 23.9355 10.3555 23.291 10.6094C22.6465 10.8633 21.9824 11.127 21.2988 11.4004C20.6348 11.6738 20 11.9277 19.3945 12.1621C18.7891 12.377 18.252 12.543 17.7832 12.6602C17.3145 12.7578 16.9727 12.7676 16.7578 12.6895C16.8164 12.3574 16.9531 12.0645 17.168 11.8105C17.3828 11.5371 17.6367 11.293 17.9297 11.0781C18.2422 10.8633 18.5645 10.6777 18.8965 10.5215C19.2285 10.3652 19.541 10.2383 19.834 10.1406C21.0254 9.75 22.0508 9.41797 22.9102 9.14453C23.7695 8.87109 24.6094 8.66602 25.4297 8.5293C26.2695 8.39258 27.1582 8.33398 28.0957 8.35352C29.0332 8.35352 30.1758 8.44141 31.5234 8.61719C32.6172 8.89062 33.3691 9.26172 33.7793 9.73047C34.209 10.1992 34.3945 10.7266 34.3359 11.3125C34.2773 11.8984 34.0332 12.5234 33.6035 13.1875C33.1738 13.832 32.6465 14.4863 32.0215 15.1504C31.416 15.7949 30.752 16.4297 30.0293 17.0547C29.3262 17.6797 28.6719 18.2461 28.0664 18.7539C27.4609 19.2617 26.9531 19.7012 26.543 20.0723C26.1523 20.4434 25.9473 20.6973 25.9277 20.834L24.9023 29.9746L24.7266 30.209C24.6289 30.3457 24.502 30.4922 24.3457 30.6484C24.209 30.7852 24.043 30.9023 23.8477 31C23.6719 31.0977 23.5156 31.0977 23.3789 31V22.3574Z" fill="black"/>
<path d="M4.59961 30.502C3.48633 30.0527 2.63672 29.4668 2.05078 28.7441C1.46484 28.002 1.06445 27.2402 0.849609 26.459C0.634766 25.6582 0.566406 24.8867 0.644531 24.1445C0.722656 23.4023 0.869141 22.8066 1.08398 22.3574C1.29883 21.8887 1.54297 21.6348 1.81641 21.5957C2.10938 21.5371 2.35352 21.791 2.54883 22.3574C2.33398 23.5879 2.33398 24.6621 2.54883 25.5801C2.76367 26.4785 3.11523 27.2305 3.60352 27.8359C4.0918 28.4219 4.6875 28.8613 5.39062 29.1543C6.09375 29.4277 6.81641 29.5742 7.55859 29.5938C8.30078 29.5938 9.02344 29.457 9.72656 29.1836C10.4297 28.9102 11.0352 28.5195 11.543 28.0117C12.0508 27.4844 12.4219 26.8301 12.6562 26.0488C12.8906 25.2676 12.9102 24.3789 12.7148 23.3828C12.6172 22.9336 12.3535 22.3867 11.9238 21.7422C11.5137 21.0781 11.0352 20.375 10.4883 19.6328C9.96094 18.8906 9.41406 18.1387 8.84766 17.377C8.28125 16.5957 7.80273 15.8535 7.41211 15.1504C7.04102 14.4277 6.79688 13.7734 6.67969 13.1875C6.58203 12.582 6.72852 12.084 7.11914 11.6934C7.43164 11.4395 7.89062 11.0586 8.49609 10.5508C9.12109 10.0234 9.79492 9.50586 10.5176 8.99805C11.2402 8.49023 11.9727 8.05078 12.7148 7.67969C13.4766 7.28906 14.1602 7.09375 14.7656 7.09375C15.2148 7.09375 15.4492 7.16211 15.4688 7.29883C15.5078 7.43555 15.4102 7.62109 15.1758 7.85547C14.9414 8.07031 14.5996 8.33398 14.1504 8.64648C13.7207 8.95898 13.252 9.30078 12.7441 9.67188C12.2363 10.0234 11.7188 10.4043 11.1914 10.8145C10.6836 11.2051 10.2441 11.6055 9.87305 12.0156C9.52148 12.4062 9.25781 12.7969 9.08203 13.1875C8.92578 13.5586 8.94531 13.9102 9.14062 14.2422C9.84375 15.2383 10.5469 16.2441 11.25 17.2598C11.9727 18.2754 12.5977 19.2812 13.125 20.2773C13.6523 21.2539 14.043 22.2207 14.2969 23.1777C14.5703 24.1152 14.6094 25.0234 14.4141 25.9023C14.2188 26.7617 13.7402 27.582 12.9785 28.3633C12.2363 29.1445 11.1328 29.8574 9.66797 30.502C8.78906 30.873 7.93945 31.0488 7.11914 31.0293C6.31836 31.0098 5.47852 30.834 4.59961 30.502Z" fill="black"/>
</svg>
